# Blender v2.79 (sub 0) OBJ File: ''
# www.blender.org
o pCylinder1_Untitled.004
v -0.992116 -0.250000 0.125333
v -0.968584 -0.250000 0.248690
v -0.929777 -0.250000 0.368125
v -0.876307 -0.250000 0.481754
v -0.809018 -0.250000 0.587786
v -0.728969 -0.250000 0.684548
v -0.637425 -0.250000 0.770514
v -0.535827 -0.250000 0.844329
v -0.425780 -0.250000 0.904828
v -0.309017 -0.250000 0.951057
v -0.187381 -0.250000 0.982288
v -0.062790 -0.250000 0.998028
v 0.062791 -0.250000 0.998028
v 0.187382 -0.250000 0.982288
v 0.309017 -0.250000 0.951057
v 0.425780 -0.250000 0.904828
v 0.535827 -0.250000 0.844329
v 0.637424 -0.250000 0.770514
v 0.728969 -0.250000 0.684548
v 0.809018 -0.250000 0.587786
v 0.876307 -0.250000 0.481754
v 0.929777 -0.250000 0.368125
v 0.968584 -0.250000 0.248690
v 0.992115 -0.250000 0.125333
v 1.000001 -0.250000 -0.000000
v 0.992115 -0.250000 -0.125333
v 0.968584 -0.250000 -0.248690
v 0.929777 -0.250000 -0.368125
v 0.876307 -0.250000 -0.481754
v 0.809017 -0.250000 -0.587786
v 0.728969 -0.250000 -0.684547
v 0.637424 -0.250000 -0.770514
v 0.535827 -0.250000 -0.844328
v 0.425779 -0.250000 -0.904827
v 0.309017 -0.250000 -0.951057
v 0.187381 -0.250000 -0.982288
v 0.062790 -0.250000 -0.998027
v -0.062791 -0.250000 -0.998027
v -0.187381 -0.250000 -0.982287
v -0.309017 -0.250000 -0.951057
v -0.425779 -0.250000 -0.904827
v -0.535827 -0.250000 -0.844328
v -0.637424 -0.250000 -0.770513
v -0.728969 -0.250000 -0.684547
v -0.809017 -0.250000 -0.587785
v -0.876307 -0.250000 -0.481754
v -0.929776 -0.250000 -0.368125
v -0.968583 -0.250000 -0.248690
v -0.992115 -0.250000 -0.125333
v -1.000000 -0.250000 0.000000
v -0.992116 0.250000 0.125333
v -0.968584 0.250000 0.248690
v -0.929777 0.250000 0.368125
v -0.876307 0.250000 0.481754
v -0.809018 0.250000 0.587786
v -0.728969 0.250000 0.684548
v -0.637425 0.250000 0.770514
v -0.535827 0.250000 0.844329
v -0.425780 0.250000 0.904828
v -0.309017 0.250000 0.951057
v -0.187381 0.250000 0.982288
v -0.062790 0.250000 0.998028
v 0.062791 0.250000 0.998027
v 0.187382 0.250000 0.982288
v 0.309017 0.250000 0.951057
v 0.425780 0.250000 0.904828
v 0.535827 0.250000 0.844328
v 0.637424 0.250000 0.770514
v 0.728969 0.250000 0.684547
v 0.809018 0.250000 0.587785
v 0.876307 0.250000 0.481754
v 0.929777 0.250000 0.368125
v 0.968584 0.250000 0.248690
v 0.992115 0.250000 0.125333
v 1.000001 0.250000 -0.000000
v 0.992115 0.250000 -0.125333
v 0.968584 0.250000 -0.248690
v 0.929777 0.250000 -0.368125
v 0.876307 0.250000 -0.481754
v 0.809017 0.250000 -0.587786
v 0.728969 0.250000 -0.684548
v 0.637424 0.250000 -0.770514
v 0.535827 0.250000 -0.844328
v 0.425779 0.250000 -0.904827
v 0.309017 0.250000 -0.951057
v 0.187381 0.250000 -0.982288
v 0.062790 0.250000 -0.998027
v -0.062791 0.250000 -0.998027
v -0.187381 0.250000 -0.982287
v -0.309017 0.250000 -0.951057
v -0.425779 0.250000 -0.904827
v -0.535827 0.250000 -0.844328
v -0.637424 0.250000 -0.770513
v -0.728969 0.250000 -0.684547
v -0.809017 0.250000 -0.587785
v -0.876307 0.250000 -0.481754
v -0.929776 0.250000 -0.368125
v -0.968583 0.250000 -0.248690
v -0.992115 0.250000 -0.125333
v -1.000000 0.250000 -0.000000
v 0.000000 -0.250000 0.000000
v 0.000000 0.250000 -0.000000
vt 0.375000 0.312500
vt 0.380000 0.312500
vt 0.375000 0.688440
vt 0.380000 0.688440
vt 0.385000 0.312500
vt 0.385000 0.688440
vt 0.390000 0.312500
vt 0.390000 0.688440
vt 0.395000 0.312500
vt 0.395000 0.688440
vt 0.400000 0.312500
vt 0.400000 0.688440
vt 0.405000 0.312500
vt 0.405000 0.688440
vt 0.410000 0.312500
vt 0.410000 0.688440
vt 0.415000 0.312500
vt 0.415000 0.688440
vt 0.420000 0.312500
vt 0.420000 0.688440
vt 0.425000 0.312500
vt 0.425000 0.688440
vt 0.430000 0.312500
vt 0.430000 0.688440
vt 0.435000 0.312500
vt 0.435000 0.688440
vt 0.440000 0.312500
vt 0.440000 0.688440
vt 0.445000 0.312500
vt 0.445000 0.688440
vt 0.450000 0.312500
vt 0.450000 0.688440
vt 0.455000 0.312500
vt 0.455000 0.688440
vt 0.460000 0.312500
vt 0.460000 0.688440
vt 0.465000 0.312500
vt 0.465000 0.688440
vt 0.470000 0.312500
vt 0.470000 0.688440
vt 0.475000 0.312500
vt 0.475000 0.688440
vt 0.480000 0.312500
vt 0.480000 0.688440
vt 0.485000 0.312500
vt 0.485000 0.688440
vt 0.490000 0.312500
vt 0.490000 0.688440
vt 0.495000 0.312500
vt 0.495000 0.688440
vt 0.500000 0.312500
vt 0.500000 0.688440
vt 0.505000 0.312500
vt 0.505000 0.688440
vt 0.510000 0.312500
vt 0.510000 0.688440
vt 0.515000 0.312500
vt 0.515000 0.688440
vt 0.520000 0.312500
vt 0.520000 0.688440
vt 0.525000 0.312500
vt 0.525000 0.688440
vt 0.530000 0.312500
vt 0.530000 0.688440
vt 0.535000 0.312500
vt 0.535000 0.688440
vt 0.540000 0.312500
vt 0.540000 0.688440
vt 0.545000 0.312500
vt 0.545000 0.688440
vt 0.550000 0.312500
vt 0.550000 0.688440
vt 0.555000 0.312500
vt 0.555000 0.688440
vt 0.560000 0.312500
vt 0.560000 0.688440
vt 0.565000 0.312500
vt 0.565000 0.688440
vt 0.570000 0.312500
vt 0.570000 0.688440
vt 0.575000 0.312500
vt 0.575000 0.688440
vt 0.580000 0.312500
vt 0.580000 0.688440
vt 0.585000 0.312500
vt 0.585000 0.688440
vt 0.590000 0.312500
vt 0.590000 0.688440
vt 0.595000 0.312500
vt 0.595000 0.688440
vt 0.600000 0.312500
vt 0.600000 0.688440
vt 0.605000 0.312500
vt 0.605000 0.688440
vt 0.610000 0.312500
vt 0.610000 0.688440
vt 0.615000 0.312500
vt 0.615000 0.688440
vt 0.620000 0.312500
vt 0.620000 0.688440
vt 0.625000 0.312500
vt 0.625000 0.688440
vt 0.651341 0.117392
vt 0.655018 0.136667
vt 0.500000 0.150000
vt 0.645278 0.098730
vt 0.636923 0.080976
vt 0.626409 0.064408
vt 0.613901 0.049289
vt 0.599598 0.035857
vt 0.583723 0.024324
vt 0.566528 0.014871
vt 0.548284 0.007647
vt 0.529278 0.002767
vt 0.509811 0.000308
vt 0.490189 0.000308
vt 0.470722 0.002768
vt 0.451716 0.007647
vt 0.433472 0.014871
vt 0.416277 0.024324
vt 0.400402 0.035857
vt 0.386099 0.049290
vt 0.373591 0.064409
vt 0.363077 0.080976
vt 0.354722 0.098731
vt 0.348659 0.117392
vt 0.344982 0.136667
vt 0.343750 0.156250
vt 0.344982 0.175833
vt 0.348659 0.195108
vt 0.354722 0.213770
vt 0.363077 0.231524
vt 0.373591 0.248092
vt 0.386099 0.263211
vt 0.400402 0.276643
vt 0.416277 0.288176
vt 0.433472 0.297629
vt 0.451716 0.304853
vt 0.470722 0.309732
vt 0.490189 0.312192
vt 0.509811 0.312192
vt 0.529278 0.309732
vt 0.548284 0.304853
vt 0.566528 0.297629
vt 0.583723 0.288176
vt 0.599598 0.276643
vt 0.613901 0.263210
vt 0.626409 0.248091
vt 0.636923 0.231524
vt 0.645278 0.213769
vt 0.651341 0.195108
vt 0.655018 0.175833
vt 0.656250 0.156250
vt 0.655018 0.863333
vt 0.651341 0.882608
vt 0.500000 0.837500
vt 0.645278 0.901269
vt 0.636923 0.919024
vt 0.626409 0.935591
vt 0.613901 0.950710
vt 0.599598 0.964143
vt 0.583723 0.975676
vt 0.566528 0.985129
vt 0.548284 0.992353
vt 0.529278 0.997232
vt 0.509811 0.999692
vt 0.490189 0.999692
vt 0.470722 0.997232
vt 0.451716 0.992353
vt 0.433472 0.985129
vt 0.416277 0.975676
vt 0.400402 0.964143
vt 0.386099 0.950711
vt 0.373591 0.935592
vt 0.363077 0.919024
vt 0.354722 0.901270
vt 0.348659 0.882608
vt 0.344982 0.863333
vt 0.343750 0.843750
vt 0.344982 0.824167
vt 0.348659 0.804892
vt 0.354722 0.786231
vt 0.363077 0.768476
vt 0.373591 0.751909
vt 0.386099 0.736790
vt 0.400402 0.723357
vt 0.416277 0.711824
vt 0.433472 0.702371
vt 0.451716 0.695147
vt 0.470722 0.690268
vt 0.490189 0.687808
vt 0.509811 0.687808
vt 0.529278 0.690267
vt 0.548284 0.695147
vt 0.566528 0.702371
vt 0.583723 0.711824
vt 0.599598 0.723357
vt 0.613901 0.736789
vt 0.626409 0.751908
vt 0.636923 0.768476
vt 0.645278 0.786230
vt 0.651341 0.804892
vt 0.655018 0.824167
vt 0.656250 0.843750
vn -0.9921 0.0000 0.1253
vn -0.9686 0.0000 0.2487
vn -0.9298 0.0000 0.3681
vn -0.8763 0.0000 0.4818
vn -0.8763 0.0000 0.4817
vn -0.8090 0.0000 0.5878
vn -0.7290 0.0000 0.6846
vn -0.7290 0.0000 0.6845
vn -0.6374 0.0000 0.7705
vn -0.5358 0.0000 0.8443
vn -0.4258 0.0000 0.9048
vn -0.3090 0.0000 0.9511
vn -0.1874 0.0000 0.9823
vn -0.0628 0.0000 0.9980
vn 0.0628 0.0000 0.9980
vn 0.1874 0.0000 0.9823
vn 0.3090 0.0000 0.9511
vn 0.4258 0.0000 0.9048
vn 0.5358 0.0000 0.8443
vn 0.6374 0.0000 0.7705
vn 0.7290 0.0000 0.6845
vn 0.7290 0.0000 0.6846
vn 0.8090 0.0000 0.5878
vn 0.8763 0.0000 0.4817
vn 0.8763 0.0000 0.4818
vn 0.9298 0.0000 0.3681
vn 0.9686 0.0000 0.2487
vn 0.9921 0.0000 0.1253
vn 1.0000 0.0000 -0.0000
vn 0.9921 0.0000 -0.1253
vn 0.9686 0.0000 -0.2487
vn 0.9298 0.0000 -0.3681
vn 0.8763 0.0000 -0.4818
vn 0.8763 0.0000 -0.4817
vn 0.8090 0.0000 -0.5878
vn 0.7290 0.0000 -0.6846
vn 0.7290 0.0000 -0.6845
vn 0.6374 0.0000 -0.7705
vn 0.5358 0.0000 -0.8443
vn 0.4258 0.0000 -0.9048
vn 0.3090 0.0000 -0.9511
vn 0.1874 0.0000 -0.9823
vn 0.0628 0.0000 -0.9980
vn -0.0628 0.0000 -0.9980
vn -0.1874 0.0000 -0.9823
vn -0.3090 0.0000 -0.9511
vn -0.4258 0.0000 -0.9048
vn -0.5358 0.0000 -0.8443
vn -0.6374 0.0000 -0.7705
vn -0.7290 0.0000 -0.6845
vn -0.7290 0.0000 -0.6846
vn -0.8090 0.0000 -0.5878
vn -0.8763 0.0000 -0.4817
vn -0.8763 0.0000 -0.4818
vn -0.9298 0.0000 -0.3681
vn -0.9686 0.0000 -0.2487
vn -0.9921 0.0000 -0.1253
vn -1.0000 0.0000 0.0000
vn 0.0000 -1.0000 0.0000
vn 0.0000 1.0000 0.0000
s 1
f 1/1/1 2/2/2 51/3/1
f 51/3/1 2/2/2 52/4/2
f 2/2/2 3/5/3 52/4/2
f 52/4/2 3/5/3 53/6/3
f 3/5/3 4/7/4 53/6/3
f 53/6/3 4/7/4 54/8/4
f 4/7/5 5/9/6 54/8/5
f 54/8/5 5/9/6 55/10/6
f 5/9/6 6/11/7 55/10/6
f 55/10/6 6/11/7 56/12/7
f 6/11/8 7/13/9 56/12/8
f 56/12/8 7/13/9 57/14/9
f 7/13/9 8/15/10 57/14/9
f 57/14/9 8/15/10 58/16/10
f 8/15/10 9/17/11 58/16/10
f 58/16/10 9/17/11 59/18/11
f 9/17/11 10/19/12 59/18/11
f 59/18/11 10/19/12 60/20/12
f 10/19/12 11/21/13 60/20/12
f 60/20/12 11/21/13 61/22/13
f 11/21/13 12/23/14 61/22/13
f 61/22/13 12/23/14 62/24/14
f 12/23/14 13/25/15 62/24/14
f 62/24/14 13/25/15 63/26/15
f 13/25/15 14/27/16 63/26/15
f 63/26/15 14/27/16 64/28/16
f 14/27/16 15/29/17 64/28/16
f 64/28/16 15/29/17 65/30/17
f 15/29/17 16/31/18 65/30/17
f 65/30/17 16/31/18 66/32/18
f 16/31/18 17/33/19 66/32/18
f 66/32/18 17/33/19 67/34/19
f 17/33/19 18/35/20 67/34/19
f 67/34/19 18/35/20 68/36/20
f 18/35/20 19/37/21 68/36/20
f 68/36/20 19/37/21 69/38/21
f 19/37/22 20/39/23 69/38/22
f 69/38/22 20/39/23 70/40/23
f 20/39/23 21/41/24 70/40/23
f 70/40/23 21/41/24 71/42/24
f 21/41/25 22/43/26 71/42/25
f 71/42/25 22/43/26 72/44/26
f 22/43/26 23/45/27 72/44/26
f 72/44/26 23/45/27 73/46/27
f 23/45/27 24/47/28 73/46/27
f 73/46/27 24/47/28 74/48/28
f 24/47/28 25/49/29 74/48/28
f 74/48/28 25/49/29 75/50/29
f 25/49/29 26/51/30 75/50/29
f 75/50/29 26/51/30 76/52/30
f 26/51/30 27/53/31 76/52/30
f 76/52/30 27/53/31 77/54/31
f 27/53/31 28/55/32 77/54/31
f 77/54/31 28/55/32 78/56/32
f 28/55/32 29/57/33 78/56/32
f 78/56/32 29/57/33 79/58/33
f 29/57/34 30/59/35 79/58/34
f 79/58/34 30/59/35 80/60/35
f 30/59/35 31/61/36 80/60/35
f 80/60/35 31/61/36 81/62/36
f 31/61/37 32/63/38 81/62/37
f 81/62/37 32/63/38 82/64/38
f 32/63/38 33/65/39 82/64/38
f 82/64/38 33/65/39 83/66/39
f 33/65/39 34/67/40 83/66/39
f 83/66/39 34/67/40 84/68/40
f 34/67/40 35/69/41 84/68/40
f 84/68/40 35/69/41 85/70/41
f 35/69/41 36/71/42 85/70/41
f 85/70/41 36/71/42 86/72/42
f 36/71/42 37/73/43 86/72/42
f 86/72/42 37/73/43 87/74/43
f 37/73/43 38/75/44 87/74/43
f 87/74/43 38/75/44 88/76/44
f 38/75/44 39/77/45 88/76/44
f 88/76/44 39/77/45 89/78/45
f 39/77/45 40/79/46 89/78/45
f 89/78/45 40/79/46 90/80/46
f 40/79/46 41/81/47 90/80/46
f 90/80/46 41/81/47 91/82/47
f 41/81/47 42/83/48 91/82/47
f 91/82/47 42/83/48 92/84/48
f 42/83/48 43/85/49 92/84/48
f 92/84/48 43/85/49 93/86/49
f 43/85/49 44/87/50 93/86/49
f 93/86/49 44/87/50 94/88/50
f 44/87/51 45/89/52 94/88/51
f 94/88/51 45/89/52 95/90/52
f 45/89/52 46/91/53 95/90/52
f 95/90/52 46/91/53 96/92/53
f 46/91/54 47/93/55 96/92/54
f 96/92/54 47/93/55 97/94/55
f 47/93/55 48/95/56 97/94/55
f 97/94/55 48/95/56 98/96/56
f 48/95/56 49/97/57 98/96/56
f 98/96/56 49/97/57 99/98/57
f 49/97/57 50/99/58 99/98/57
f 99/98/57 50/99/58 100/100/58
f 50/99/58 1/101/1 100/100/58
f 100/100/58 1/101/1 51/102/1
f 2/103/59 1/104/59 101/105/59
f 3/106/59 2/103/59 101/105/59
f 4/107/59 3/106/59 101/105/59
f 5/108/59 4/107/59 101/105/59
f 6/109/59 5/108/59 101/105/59
f 7/110/59 6/109/59 101/105/59
f 8/111/59 7/110/59 101/105/59
f 9/112/59 8/111/59 101/105/59
f 10/113/59 9/112/59 101/105/59
f 11/114/59 10/113/59 101/105/59
f 12/115/59 11/114/59 101/105/59
f 13/116/59 12/115/59 101/105/59
f 14/117/59 13/116/59 101/105/59
f 15/118/59 14/117/59 101/105/59
f 16/119/59 15/118/59 101/105/59
f 17/120/59 16/119/59 101/105/59
f 18/121/59 17/120/59 101/105/59
f 19/122/59 18/121/59 101/105/59
f 20/123/59 19/122/59 101/105/59
f 21/124/59 20/123/59 101/105/59
f 22/125/59 21/124/59 101/105/59
f 23/126/59 22/125/59 101/105/59
f 24/127/59 23/126/59 101/105/59
f 25/128/59 24/127/59 101/105/59
f 26/129/59 25/128/59 101/105/59
f 27/130/59 26/129/59 101/105/59
f 28/131/59 27/130/59 101/105/59
f 29/132/59 28/131/59 101/105/59
f 30/133/59 29/132/59 101/105/59
f 31/134/59 30/133/59 101/105/59
f 32/135/59 31/134/59 101/105/59
f 33/136/59 32/135/59 101/105/59
f 34/137/59 33/136/59 101/105/59
f 35/138/59 34/137/59 101/105/59
f 36/139/59 35/138/59 101/105/59
f 37/140/59 36/139/59 101/105/59
f 38/141/59 37/140/59 101/105/59
f 39/142/59 38/141/59 101/105/59
f 40/143/59 39/142/59 101/105/59
f 41/144/59 40/143/59 101/105/59
f 42/145/59 41/144/59 101/105/59
f 43/146/59 42/145/59 101/105/59
f 44/147/59 43/146/59 101/105/59
f 45/148/59 44/147/59 101/105/59
f 46/149/59 45/148/59 101/105/59
f 47/150/59 46/149/59 101/105/59
f 48/151/59 47/150/59 101/105/59
f 49/152/59 48/151/59 101/105/59
f 50/153/59 49/152/59 101/105/59
f 1/104/59 50/153/59 101/105/59
f 51/154/60 52/155/60 102/156/60
f 52/155/60 53/157/60 102/156/60
f 53/157/60 54/158/60 102/156/60
f 54/158/60 55/159/60 102/156/60
f 55/159/60 56/160/60 102/156/60
f 56/160/60 57/161/60 102/156/60
f 57/161/60 58/162/60 102/156/60
f 58/162/60 59/163/60 102/156/60
f 59/163/60 60/164/60 102/156/60
f 60/164/60 61/165/60 102/156/60
f 61/165/60 62/166/60 102/156/60
f 62/166/60 63/167/60 102/156/60
f 63/167/60 64/168/60 102/156/60
f 64/168/60 65/169/60 102/156/60
f 65/169/60 66/170/60 102/156/60
f 66/170/60 67/171/60 102/156/60
f 67/171/60 68/172/60 102/156/60
f 68/172/60 69/173/60 102/156/60
f 69/173/60 70/174/60 102/156/60
f 70/174/60 71/175/60 102/156/60
f 71/175/60 72/176/60 102/156/60
f 72/176/60 73/177/60 102/156/60
f 73/177/60 74/178/60 102/156/60
f 74/178/60 75/179/60 102/156/60
f 75/179/60 76/180/60 102/156/60
f 76/180/60 77/181/60 102/156/60
f 77/181/60 78/182/60 102/156/60
f 78/182/60 79/183/60 102/156/60
f 79/183/60 80/184/60 102/156/60
f 80/184/60 81/185/60 102/156/60
f 81/185/60 82/186/60 102/156/60
f 82/186/60 83/187/60 102/156/60
f 83/187/60 84/188/60 102/156/60
f 84/188/60 85/189/60 102/156/60
f 85/189/60 86/190/60 102/156/60
f 86/190/60 87/191/60 102/156/60
f 87/191/60 88/192/60 102/156/60
f 88/192/60 89/193/60 102/156/60
f 89/193/60 90/194/60 102/156/60
f 90/194/60 91/195/60 102/156/60
f 91/195/60 92/196/60 102/156/60
f 92/196/60 93/197/60 102/156/60
f 93/197/60 94/198/60 102/156/60
f 94/198/60 95/199/60 102/156/60
f 95/199/60 96/200/60 102/156/60
f 96/200/60 97/201/60 102/156/60
f 97/201/60 98/202/60 102/156/60
f 98/202/60 99/203/60 102/156/60
f 99/203/60 100/204/60 102/156/60
f 100/204/60 51/154/60 102/156/60
